<svg width="800" height="414" viewBox="0 0 512 265" xmlns="http://www.w3.org/2000/svg">
    <path
        d="M500.14 228.97c0 13.324-10.422 24.14-23.263 24.14H35.106c-12.84 0-23.263-10.815-23.263-24.14V35.98c0-13.322 10.422-24.137 23.263-24.137h441.772c12.84 0 23.263 10.813 23.263 24.138v192.99Z"
        style="display:inline;fill:#e6e9ed;stroke:#cdd2da;stroke-width:23.6853;stroke-linecap:round;stroke-linejoin:round;stroke-dasharray:none;stroke-opacity:1"
    />
    <path
        d="M363.503 351.797c0 11.79-9.557 21.362-21.332 21.362-11.773 0-21.329-9.57-21.329-21.362 0-11.788 9.556-21.36 21.33-21.36 11.773 0 21.33 9.572 21.33 21.36z"
        style="fill:#5fb171;fill-opacity:1;stroke-width:1.00011"
        transform="matrix(1.17012 0 0 1.16848 -76.62 -322.34)"
    />
    <path
        d="M438.38 351.797c0 11.79-9.563 21.362-21.346 21.362s-21.314-9.57-21.314-21.362c0-11.788 9.53-21.36 21.314-21.36 11.783 0 21.346 9.572 21.346 21.36z"
        style="fill:#5fb171;fill-opacity:1;stroke-width:1.00047"
        transform="matrix(1.17012 0 0 1.16848 -76.62 -322.34)"
    />
    <path
        d="M363.503 426.66c0 11.799-9.557 21.376-21.332 21.376-11.773 0-21.329-9.576-21.329-21.376s9.556-21.345 21.33-21.345c11.773 0 21.33 9.546 21.33 21.345z"
        style="fill:#434a54;stroke-width:1.00046"
        transform="matrix(1.17012 0 0 1.16848 -76.62 -322.34)"
    />
    <path
        d="M438.38 426.66c0 11.799-9.563 21.376-21.346 21.376s-21.314-9.576-21.314-21.376 9.53-21.345 21.314-21.345c11.783 0 21.346 9.546 21.346 21.345z"
        style="fill:#434a54;stroke-width:1.00082"
        transform="matrix(1.17012 0 0 1.16848 -76.62 -322.34)"
    />
    <path
        d="M219.091 257.271c-11.782 0-21.33 9.542-21.33 21.34V342.7c0 11.798 9.548 21.374 21.33 21.374 11.782 0 21.33-9.575 21.33-21.374v-64.087c.001-11.799-9.548-21.341-21.33-21.341z"
        style="fill:#434a54;stroke-width:1.00077"
        transform="matrix(1.17012 0 0 1.16848 -118.317 -230.538)"
    />
    <path
        d="M272.414 310.615c0-11.8-9.547-21.345-21.327-21.345h-63.998c-11.78 0-21.327 9.546-21.327 21.345 0 11.798 9.546 21.376 21.327 21.376h63.998c11.78 0 21.327-9.562 21.327-21.376z"
        style="fill:#656d78;stroke-width:1.00077"
        transform="matrix(1.17012 0 0 1.16848 -118.317 -230.538)"
    />
</svg>
