<?xml version="1.0" encoding="UTF-8" standalone="no"?>
<!-- Uploaded to: SVG Repo, www.svgrepo.com, Generator: SVG Repo Mixer Tools -->

<svg
   height="366.64896"
   width="685.297"
   version="1.1"
   id="Layer_1"
   viewBox="0 0 438.57637 234.648"
   xml:space="preserve"
   sodipodi:docname="GameDeck 2.svg"
   inkscape:version="1.3 (0e150ed6c4, 2023-07-21)"
   inkscape:export-filename="GameDeck 1 Plain.svg"
   inkscape:export-xdpi="96"
   inkscape:export-ydpi="96"
   xmlns:inkscape="http://www.inkscape.org/namespaces/inkscape"
   xmlns:sodipodi="http://sodipodi.sourceforge.net/DTD/sodipodi-0.dtd"
   xmlns="http://www.w3.org/2000/svg"
   xmlns:svg="http://www.w3.org/2000/svg"><defs
   id="defs11" /><sodipodi:namedview
   id="namedview11"
   pagecolor="#ffffff"
   bordercolor="#000000"
   borderopacity="0.25"
   inkscape:showpageshadow="2"
   inkscape:pageopacity="0.0"
   inkscape:pagecheckerboard="0"
   inkscape:deskcolor="#d1d1d1"
   inkscape:zoom="0.538125"
   inkscape:cx="129.15215"
   inkscape:cy="508.24623"
   inkscape:window-width="2560"
   inkscape:window-height="1057"
   inkscape:window-x="-8"
   inkscape:window-y="-8"
   inkscape:window-maximized="1"
   inkscape:current-layer="Layer_1" />&#10;&#10;&#10;&#10;&#10;&#10;&#10;&#10;&#10;<path
   style="fill:#e6e9ed;stroke-width:0.943433"
   d="m 418.65939,202.64801 c 0,11.781 -8.5108,21.344 -18.99667,21.344 H 38.912767 c -10.48498,0 -18.99668,-9.562 -18.99668,-21.344 V 31.998015 c 0,-11.781 8.51081,-21.344 18.99668,-21.344 H 399.6636 c 10.48498,0 18.99668,9.562 18.99668,21.344 V 202.64801 Z"
   id="path3" /><path
   style="fill:#ccd1d9;stroke-width:0.966707"
   d="M 408.67258,234.64801 H 29.902877 c -16.48499,0 -29.9028797441406,-14.359 -29.9028797441406,-32 V 31.998015 C -2.7441406e-6,14.342015 13.417877,1.4892578e-5 29.902877,1.4892578e-5 H 408.67258 c 16.499,0 29.90379,14.342000107422 29.90379,31.998000107422 V 202.64801 c -9.3e-4,17.641 -13.40479,32 -29.90379,32 z M 29.902877,21.310015 c -5.50434,0 -9.9723,4.797 -9.9723,10.688 V 202.64801 c 0,5.875 4.46796,10.656 9.9723,10.656 H 408.67258 c 5.51835,0 9.98724,-4.781 9.98724,-10.656 V 31.998015 c 0,-5.891 -4.46795,-10.688 -9.98725,-10.688 z"
   id="path4" /><g
   id="g6"
   transform="translate(-65.068203,-277.33599)">&#10;	<path
   style="fill:#5fb171;fill-opacity:1"
   d="m 363.835,351.988 c 0,11.781 -9.562,21.344 -21.344,21.344 -11.78,0 -21.342,-9.562 -21.342,-21.344 0,-11.779 9.562,-21.342 21.342,-21.342 11.781,0 21.344,9.563 21.344,21.342 z"
   id="path5" />&#10;	<path
   style="fill:#5fb171;fill-opacity:1"
   d="m 438.489,351.988 c 0,11.781 -9.562,21.344 -21.344,21.344 -11.782,0 -21.312,-9.562 -21.312,-21.344 0,-11.779 9.53,-21.342 21.312,-21.342 11.782,0 21.344,9.563 21.344,21.342 z"
   id="path6" />&#10;</g><g
   id="g8"
   transform="translate(-65.068203,-277.33599)">&#10;	<path
   style="fill:#434a54"
   d="m 363.835,426.642 c 0,11.781 -9.562,21.344 -21.344,21.344 -11.78,0 -21.342,-9.562 -21.342,-21.344 0,-11.782 9.562,-21.312 21.342,-21.312 11.781,0 21.344,9.531 21.344,21.312 z"
   id="path7" />&#10;	<path
   style="fill:#434a54"
   d="m 438.489,426.642 c 0,11.781 -9.562,21.344 -21.344,21.344 -11.782,0 -21.312,-9.562 -21.312,-21.344 0,-11.782 9.53,-21.312 21.312,-21.312 11.782,0 21.344,9.531 21.344,21.312 z"
   id="path8" />&#10;</g><path
   style="fill:#434a54"
   d="m 118.49601,63.998015 c -11.781,0 -21.328003,9.529 -21.328003,21.311 v 63.997995 c 0,11.781 9.547003,21.344 21.328003,21.344 11.78,0 21.327,-9.562 21.327,-21.344 V 85.309015 c 10e-4,-11.782 -9.547,-21.311 -21.327,-21.311 z"
   id="path10" /><path
   style="fill:#656d78"
   d="m 171.82201,117.30801 c 0,-11.781 -9.54701,-21.311995 -21.327,-21.311995 H 86.497007 c -11.781,0 -21.328,9.530995 -21.328,21.311995 0,11.779 9.547,21.342 21.328,21.342 h 63.998003 c 11.781,0 21.327,-9.547 21.327,-21.342 z"
   id="path11" />&#10;</svg>
