<?xml version="1.0" encoding="UTF-8" standalone="no"?>
<!-- Uploaded to: SVG Repo, www.svgrepo.com, Generator: SVG Repo Mixer Tools -->

<svg
   height="1000"
   width="1000"
   version="1.1"
   id="Layer_1"
   viewBox="0 0 639.98 639.98"
   xml:space="preserve"
   sodipodi:docname="GameDeck Logo Inkscape.svg"
   inkscape:version="1.3 (0e150ed6c4, 2023-07-21)"
   inkscape:export-filename="GameDeck Logo.svg"
   inkscape:export-xdpi="96"
   inkscape:export-ydpi="96"
   xmlns:inkscape="http://www.inkscape.org/namespaces/inkscape"
   xmlns:sodipodi="http://sodipodi.sourceforge.net/DTD/sodipodi-0.dtd"
   xmlns="http://www.w3.org/2000/svg"
   xmlns:svg="http://www.w3.org/2000/svg"><defs
   id="defs11" /><sodipodi:namedview
   id="namedview11"
   pagecolor="#ffffff"
   bordercolor="#000000"
   borderopacity="0.25"
   inkscape:showpageshadow="2"
   inkscape:pageopacity="0.0"
   inkscape:pagecheckerboard="0"
   inkscape:deskcolor="#d1d1d1"
   inkscape:zoom="0.76102367"
   inkscape:cx="338.36004"
   inkscape:cy="530.2069"
   inkscape:window-width="2560"
   inkscape:window-height="1057"
   inkscape:window-x="-8"
   inkscape:window-y="-8"
   inkscape:window-maximized="1"
   inkscape:current-layer="Layer_1" />&#10;&#10;&#10;&#10;&#10;&#10;&#10;&#10;&#10;<path
   style="display:inline;fill:#e6e9ed;stroke:#cdd2da;stroke-width:23.6853;stroke-linecap:round;stroke-linejoin:round;stroke-dasharray:none;stroke-opacity:1"
   d="m 564.13831,416.48503 c 0,13.32328 -10.42225,24.13819 -23.26324,24.13819 H 99.10376 c -12.83982,0 -23.26311,-10.81379 -23.26311,-24.13819 V 223.49497 c 0,-13.32331 10.42225,-24.13819 23.26311,-24.13819 h 441.77235 c 12.83995,0 23.26324,10.81379 23.26324,24.13819 v 192.99006 z"
   id="path3"
   inkscape:label="Background" /><g
   id="g3"
   inkscape:label="Controls"
   transform="matrix(1.1701244,0,0,1.1684783,-65.55172,-53.819202)"><g
     id="g2"
     inkscape:label="Buttons"
     transform="translate(0,-4.256712)"><g
       id="g6"
       transform="translate(45.23363,-65.069288)"
       inkscape:label="Down">&#10;	<path
   style="fill:#5fb171;fill-opacity:1;stroke-width:1.00011"
   d="m 363.50277,351.79729 c 0,11.79063 -9.55636,21.36145 -21.3314,21.36145 -11.77304,0 -21.3294,-9.56982 -21.3294,-21.36145 0,-11.78863 9.55636,-21.35945 21.3294,-21.35945 11.77405,0 21.3314,9.57082 21.3314,21.35945 z"
   id="path5" />&#10;	<path
   style="fill:#5fb171;fill-opacity:1;stroke-width:1.00047"
   d="m 438.38043,351.79729 c 0,11.79063 -9.56309,21.36145 -21.3464,21.36145 -11.78332,0 -21.3144,-9.56982 -21.3144,-21.36145 0,-11.78863 9.53108,-21.35945 21.3144,-21.35945 11.78332,0 21.3464,9.57082 21.3464,21.35945 z"
   id="path6" />&#10;</g><g
       id="g8"
       transform="translate(45.23363,-65.069288)"
       inkscape:label="Top">&#10;	<path
   style="fill:#434a54;stroke-width:1.00046"
   d="m 363.50277,426.65993 c 0,11.79891 -9.55636,21.37647 -21.3314,21.37647 -11.77304,0 -21.3294,-9.57655 -21.3294,-21.37647 0,-11.79993 9.55636,-21.34443 21.3294,-21.34443 11.77405,0 21.3314,9.5455 21.3314,21.34443 z"
   id="path7" />&#10;	<path
   style="fill:#434a54;stroke-width:1.00082"
   d="m 438.38043,426.65993 c 0,11.79891 -9.56309,21.37647 -21.3464,21.37647 -11.78332,0 -21.3144,-9.57655 -21.3144,-21.37647 0,-11.79993 9.53108,-21.34443 21.3144,-21.34443 11.78332,0 21.3464,9.5455 21.3464,21.34443 z"
   id="path8" />&#10;</g></g><g
     id="g1"
     inkscape:label="Arrows"
     transform="translate(9.60002,9.23905)"><path
       style="fill:#434a54;stroke-width:1.00077"
       d="m 219.09143,257.27095 c -11.7826,0 -21.3309,9.54232 -21.3309,21.34082 v 64.08755 c 0,11.79749 9.5483,21.37387 21.3309,21.37387 11.7816,0 21.3299,-9.57538 21.3299,-21.37387 v -64.08755 c 9.9e-4,-11.7985 -9.5483,-21.34082 -21.3299,-21.34082 z"
       id="path10" /><path
       style="fill:#656d78;stroke-width:1.00077"
       d="m 272.41352,310.61537 c 0,-11.79947 -9.54692,-21.34542 -21.32679,-21.34542 h -63.9974 c -11.78089,0 -21.3278,9.54595 -21.3278,21.34542 0,11.79748 9.54691,21.37548 21.3278,21.37548 h 63.9974 c 11.78088,0 21.32679,-9.56198 21.32679,-21.37548 z"
       id="path11" /></g></g>&#10;</svg>
