<svg width="16" height="16" viewBox="0 0 24 24" xmlns="http://www.w3.org/2000/svg">
    <path
        d="M1 3a1 1 0 0 1 1-1 3.775 3.775 0 0 1 3.581 2.581l.14.419H18.03c.656 0 1.214 0 1.665.04.47.042.94.135 1.369.396a3 3 0 0 1 1.284 1.6c.161.476.15.954.089 1.422-.059.45-.18.994-.322 1.634l-.306 1.378c-.145.652-.265 1.194-.398 1.634-.14.46-.31.876-.588 1.256a4 4 0 0 1-1.626 1.305c-.431.188-.874.265-1.354.3-.458.035-1.014.035-1.68.035h-5.325c-.667 0-1.223 0-1.681-.034-.48-.036-.923-.113-1.354-.301a4 4 0 0 1-1.626-1.305c-.278-.38-.449-.795-.588-1.256-.133-.44-.253-.982-.398-1.634L4.035 6.267l-.351-1.053A1.775 1.775 0 0 0 2 4a1 1 0 0 1-1-1Zm5.247 4 .889 4c.154.697.26 1.166.368 1.526.105.348.195.527.288.654a2 2 0 0 0 .813.652c.144.063.338.112.7.14.376.027.856.028 1.57.028h5.25c.714 0 1.194 0 1.57-.029.362-.027.556-.076.7-.139a2 2 0 0 0 .813-.652c.093-.127.183-.306.288-.654.109-.36.214-.829.368-1.525l.289-1.3c.155-.694.255-1.151.3-1.501.045-.342.02-.467 0-.521a1 1 0 0 0-.427-.534c-.05-.03-.166-.082-.509-.113-.351-.031-.82-.032-1.531-.032H6.246Z"
        fill="black"
    />
    <path
        d="M11 19a2 2 0 1 1-4 0 2 2 0 0 1 4 0ZM18 21a2 2 0 1 0 0-4 2 2 0 0 0 0 4Z"
        fill="black"
    />
</svg>
