<svg width="16" height="16" viewBox="0 0 32 32" xmlns="http://www.w3.org/2000/svg">
	<path
        d="M30.658 5.937A1.24 1.24 0 0 0 30 5.751c-.204 0-.396.048-.566.135l.007-.003-6.351 3.174a3.25 3.25 0 0 0-3.093-2.307H4A3.254 3.254 0 0 0 .75 10v12.001A3.254 3.254 0 0 0 4 25.251h15.996a3.244 3.244 0 0 0 3.088-2.284l.006-.023 6.351 3.174c.161.084.352.133.555.133H30c.69 0 1.25-.56 1.25-1.25v-18c0-.447-.234-.839-.587-1.06l-.005-.003zM20.746 22a.75.75 0 0 1-.75.75H4a.75.75 0 0 1-.75-.75V9.999a.752.752 0 0 1 .75-.75h15.996a.75.75 0 0 1 .75.75V22zm8.004.979-5.504-2.752v-8.454l5.504-2.75z"
        fill="black"
    />
</svg>
